<svg width="131" height="151" viewBox="0 0 131 151" fill="none" xmlns="http://www.w3.org/2000/svg">
<rect x="0.5" y="0.5" width="130" height="150" stroke="black"/>
<path d="M53.6455 87.3872H79.291" stroke="black" stroke-width="2" stroke-linecap="round" stroke-linejoin="round"/>
<path d="M66.4683 50.1936V87.3872" stroke="black" stroke-width="2" stroke-linecap="round" stroke-linejoin="round"/>
<path d="M88.9081 23.1437L66.4683 50.1936L44.0284 23.1437H88.9081Z" stroke="black" stroke-width="2" stroke-linecap="round" stroke-linejoin="round"/>
<path d="M19.6193 101.727H23.8807L31.2898 119.818H31.5625L38.9716 101.727H43.233V125H39.892V108.159H39.6761L32.8125 124.966H30.0398L23.1761 108.148H22.9602V125H19.6193V101.727ZM48.0653 125V107.545H51.4631V125H48.0653ZM49.7812 104.852C49.1903 104.852 48.6828 104.655 48.2585 104.261C47.8419 103.86 47.6335 103.383 47.6335 102.83C47.6335 102.269 47.8419 101.792 48.2585 101.398C48.6828 100.996 49.1903 100.795 49.7812 100.795C50.3722 100.795 50.8759 100.996 51.2926 101.398C51.7169 101.792 51.929 102.269 51.929 102.83C51.929 103.383 51.7169 103.86 51.2926 104.261C50.8759 104.655 50.3722 104.852 49.7812 104.852ZM58.7159 107.545L62.5682 114.341L66.4545 107.545H70.1705L64.7273 116.273L70.2159 125H66.5L62.5682 118.477L58.6477 125H54.9205L60.3523 116.273L54.9886 107.545H58.7159ZM83.2244 113.693V116.636H72.9062V113.693H83.2244ZM91.5369 101.727V125H88.0256V101.727H91.5369ZM95.5028 104.75V101.727H113.514V104.75H106.253V125H102.753V104.75H95.5028Z" fill="black"/>
</svg>
